<svg viewBox="0 0 100 100" xmlns="http://www.w3.org/2000/svg" id="Workspace-Imac-Coffee-3--Streamline-Ux">
  <desc>
    Workspace Imac Coffee 3 Streamline Illustration: https://streamlinehq.com
  </desc>
  <path d="M10 50a40 40 0 1 0 80 0 40 40 0 1 0 -80 0Z" fill="#daedf7" stroke="#daedf7" stroke-linecap="round" stroke-linejoin="round" stroke-width="1"></path>
  <path d="m68.7554814158 57.1682134392 7.4118932804 -7.4118932804 10.1908229304 10.1908229305 -7.4118932804 7.4118932804Z" fill="#45413c" opacity=".15" stroke-width="1"></path>
  <path d="m68.7561381649 53.8138701883 7.4118932804 -7.4118932804 10.1908229305 10.1908229305 -7.4118932804 7.4118932804Z" fill="#ffffff" stroke-width="1"></path>
  <path d="M72.462 50.107a5.241 5.241 0 0 0 0 7.412l2.779 2.781a5.241 5.241 0 0 1 7.412 -7.411l-2.78 -2.78a5.241 5.241 0 0 0 -7.411 -0.002Z" fill="#f8f8f8" stroke-width="1"></path>
  <path d="M74.586 52.887a0.655 0.655 0 1 0 1.31 0 0.655 0.655 0 1 0 -1.31 0Z" fill="#45413c" stroke-width="1"></path>
  <path d="m68.7561381649 53.8138701883 7.4118932804 -7.4118932804 10.1908229305 10.1908229305 -7.4118932804 7.4118932804Z" fill="none" stroke="#45413c" stroke-linecap="round" stroke-linejoin="round" stroke-width="1"></path>
  <path d="m42.776 36.56 -0.685 1.826a2.814 2.814 0 0 0 2.635 3.8h8.763a2.814 2.814 0 0 0 2.635 -3.8l-0.685 -1.826Z" fill="#45413c" opacity=".15" stroke-width="1"></path>
  <path d="m42.776 34.449 -0.685 1.826a2.814 2.814 0 0 0 2.635 3.8h8.763a2.814 2.814 0 0 0 2.635 -3.8l-0.685 -1.826Z" fill="#f8f8f8" stroke-width="1"></path>
  <path d="M13.225 18.971a4.048 4.048 0 0 1 4.119 -4.221h65.312a4.04 4.04 0 0 1 4.115 4.221Z" fill="#ffffff" stroke="#45413c" stroke-linecap="round" stroke-linejoin="round" stroke-width="1"></path>
  <path d="M77.457 34.449H22.543a2.812 2.812 0 0 1 -2.517 -1.556L13.379 19.6a1.407 1.407 0 0 1 1.259 -2.036h70.724a1.407 1.407 0 0 1 1.259 2.036l-6.647 13.293a2.812 2.812 0 0 1 -2.517 1.556Z" fill="#00b8f0" stroke-width="1"></path>
  <path d="M14.638 17.564a1.407 1.407 0 0 0 -1.259 2.036l6.646 13.293a2.815 2.815 0 0 0 2.518 1.556h12.864l16.884 -16.885Z" fill="#4acfff" stroke-width="1"></path>
  <path d="m19.4 31.635 0.63 1.258a2.812 2.812 0 0 0 2.517 1.556h54.91a2.812 2.812 0 0 0 2.517 -1.556l0.63 -1.258Z" fill="#ffffff" stroke="#45413c" stroke-linecap="round" stroke-linejoin="round" stroke-width="1"></path>
  <path d="M56.213 36.56H42a1.08 1.08 0 0 1 0.084 -0.282l0.69 -1.829h12.665l0.69 1.829a1.08 1.08 0 0 1 0.084 0.282Z" fill="#e0e0e0" stroke-width="1"></path>
  <path d="M77.457 34.449H22.543a2.812 2.812 0 0 1 -2.517 -1.556L13.379 19.6a1.407 1.407 0 0 1 1.259 -2.036h70.724a1.407 1.407 0 0 1 1.259 2.036l-6.647 13.293a2.812 2.812 0 0 1 -2.517 1.556Z" fill="none" stroke="#45413c" stroke-linecap="round" stroke-linejoin="round" stroke-width="1"></path>
  <path d="m42.776 34.449 -0.685 1.826a2.814 2.814 0 0 0 2.635 3.8h8.763a2.814 2.814 0 0 0 2.635 -3.8l-0.685 -1.826Z" fill="none" stroke="#45413c" stroke-linecap="round" stroke-linejoin="round" stroke-width="1"></path>
  <path d="M61.608 59.073H36.985a2.814 2.814 0 0 1 -2.814 -2.815v-8.442a1.406 1.406 0 0 1 1.407 -1.407h27.437a1.407 1.407 0 0 1 1.407 1.407v8.442a2.814 2.814 0 0 1 -2.814 2.815Z" fill="#45413c" opacity=".15" stroke-width="1"></path>
  <path d="M61.608 56.962H36.985a2.814 2.814 0 0 1 -2.814 -2.814v-8.443a1.406 1.406 0 0 1 1.407 -1.405h27.437a1.407 1.407 0 0 1 1.407 1.407v8.443a2.814 2.814 0 0 1 -2.814 2.812Z" fill="#ffffff" stroke-width="1"></path>
  <path d="M63.015 44.3H35.578a1.407 1.407 0 0 0 -1.407 1.407v2.111a1.407 1.407 0 0 1 1.407 -1.407h27.437a1.407 1.407 0 0 1 1.407 1.407v-2.113a1.407 1.407 0 0 0 -1.407 -1.405Z" fill="#f8f8f8" stroke-width="1"></path>
  <path d="M61.608 56.962H36.985a2.814 2.814 0 0 1 -2.814 -2.814v-8.443a1.406 1.406 0 0 1 1.407 -1.405h27.437a1.407 1.407 0 0 1 1.407 1.407v8.443a2.814 2.814 0 0 1 -2.814 2.812Z" fill="none" stroke="#45413c" stroke-linecap="round" stroke-linejoin="round" stroke-width="1"></path>
  <path d="m37.688 47.113 2.111 0" fill="none" stroke="#45413c" stroke-linecap="round" stroke-linejoin="round" stroke-width="1"></path>
  <path d="m41.909 47.113 2.111 0" fill="none" stroke="#45413c" stroke-linecap="round" stroke-linejoin="round" stroke-width="1"></path>
  <path d="m46.131 47.113 2.11 0" fill="none" stroke="#45413c" stroke-linecap="round" stroke-linejoin="round" stroke-width="1"></path>
  <path d="m50.352 47.113 2.11 0" fill="none" stroke="#45413c" stroke-linecap="round" stroke-linejoin="round" stroke-width="1"></path>
  <path d="m54.573 47.113 2.111 0" fill="none" stroke="#45413c" stroke-linecap="round" stroke-linejoin="round" stroke-width="1"></path>
  <path d="m58.794 47.113 2.111 0" fill="none" stroke="#45413c" stroke-linecap="round" stroke-linejoin="round" stroke-width="1"></path>
  <path d="m37.688 50.63 2.111 0" fill="none" stroke="#45413c" stroke-linecap="round" stroke-linejoin="round" stroke-width="1"></path>
  <path d="m41.909 50.63 2.111 0" fill="none" stroke="#45413c" stroke-linecap="round" stroke-linejoin="round" stroke-width="1"></path>
  <path d="m46.131 50.63 2.11 0" fill="none" stroke="#45413c" stroke-linecap="round" stroke-linejoin="round" stroke-width="1"></path>
  <path d="m50.352 50.63 2.11 0" fill="none" stroke="#45413c" stroke-linecap="round" stroke-linejoin="round" stroke-width="1"></path>
  <path d="m54.573 50.63 2.111 0" fill="none" stroke="#45413c" stroke-linecap="round" stroke-linejoin="round" stroke-width="1"></path>
  <path d="m58.794 50.63 2.111 0" fill="none" stroke="#45413c" stroke-linecap="round" stroke-linejoin="round" stroke-width="1"></path>
  <path d="m37.688 54.148 2.111 0" fill="none" stroke="#45413c" stroke-linecap="round" stroke-linejoin="round" stroke-width="1"></path>
  <path d="m41.909 54.148 14.775 0" fill="none" stroke="#45413c" stroke-linecap="round" stroke-linejoin="round" stroke-width="1"></path>
  <path d="m58.794 54.148 2.111 0" fill="none" stroke="#45413c" stroke-linecap="round" stroke-linejoin="round" stroke-width="1"></path>
  <path d="M33.472 78.073a1.638 1.638 0 0 0 1.381 -0.754 13.028 13.028 0 0 0 1.677 -8.355 1.64 1.64 0 0 0 -3.243 0.487 9.666 9.666 0 0 1 -1.193 6.1 1.641 1.641 0 0 0 1.378 2.527Z" fill="#ffdb94" stroke="#45413c" stroke-linecap="round" stroke-linejoin="round" stroke-width="1"></path>
  <path d="M36.752 78.38a1.641 1.641 0 0 0 1.381 -0.753 13.036 13.036 0 0 0 1.677 -8.356 1.64 1.64 0 0 0 -3.243 0.487 9.669 9.669 0 0 1 -1.193 6.1 1.639 1.639 0 0 0 1.378 2.526Z" fill="#ffdb94" stroke="#45413c" stroke-linecap="round" stroke-linejoin="round" stroke-width="1"></path>
  <path d="M39.826 78.739a1.64 1.64 0 0 0 1.382 -0.754 13.024 13.024 0 0 0 1.676 -8.355 1.639 1.639 0 1 0 -3.242 0.487 9.67 9.67 0 0 1 -1.194 6.1 1.64 1.64 0 0 0 1.378 2.526Z" fill="#ffdb94" stroke="#45413c" stroke-linecap="round" stroke-linejoin="round" stroke-width="1"></path>
  <path d="m46 67.112 -1.252 -1.445a11.611 11.611 0 0 0 -8.176 -3.733c-8.781 -0.595 -16.888 10.393 -19.7 16.328l-0.078 0.145 8.131 4.2 0.382 -0.992c1.781 -4.373 3.956 -3.455 6.488 -4.792 4.09 -2.427 5.687 -3.412 11.01 -6.826 0.585 -0.548 0.687 -0.736 1.042 -0.459A1.636 1.636 0 0 0 46 67.112Z" fill="#ffdb94" stroke-width="1"></path>
  <path d="m46 67.112 -1.252 -1.445a11.614 11.614 0 0 0 -8.176 -3.733c-8.781 -0.595 -16.888 10.393 -19.7 16.328l-0.078 0.145 1.976 1.021c2.982 -6.047 10.332 -16.2 18.115 -15.639a10.82 10.82 0 0 1 7.488 4.149l1.169 1.426a1.6 1.6 0 0 1 0.114 0.172 1.486 1.486 0 0 0 0.183 -0.111A1.64 1.64 0 0 0 46 67.112Z" fill="#ffe9bd" stroke-width="1"></path>
  <path d="m41.4 66.99 -5.33 2.14c-0.07 0.03 -0.15 0.05 -0.22 0.08a10.7 10.7 0 0 1 -3.58 0.66h-0.19c-0.48 0 -0.38 -0.29 -0.32 -0.68 1.17 -2.66 3.11 -3.84 5.21 -3.84a7.456 7.456 0 0 1 4.43 1.64Z" fill="#ffbe3d" stroke-width="1"></path>
  <path d="m24.916 82.605 0.384 -1c1.78 -4.37 3.95 -3.45 6.49 -4.79 4.09 -2.43 5.68 -3.41 11.01 -6.83 0.58 -0.54 0.68 -0.73 1.04 -0.45A1.64 1.64 0 0 0 46 67.11l-1.26 -1.44a11.6 11.6 0 0 0 -8.17 -3.74c-8.78 -0.59 -16.89 10.4 -19.71 16.33l-0.077 0.144M36.07 69.13c-0.07 0.03 -0.15 0.05 -0.22 0.08a10.7 10.7 0 0 1 -3.58 0.66h-0.19c-0.48 0 -0.38 -0.29 -0.32 -0.68 1.17 -2.66 3.11 -3.84 5.21 -3.84a7.456 7.456 0 0 1 4.43 1.64Z" fill="none" stroke="#45413c" stroke-linecap="round" stroke-linejoin="round" stroke-width="1"></path>
  <path d="M53.748 60.605a8.72 8.72 0 0 0 -7.631 8.02 8.71 8.71 0 1 0 7.631 -8.02Z" fill="#45413c" opacity=".15" stroke-width="1"></path>
  <path d="m48.511 66.647 -4.987 0.61a1.674 1.674 0 0 0 -1.459 1.865 1.674 1.674 0 0 0 1.866 1.459l4.987 -0.609Z" fill="#ffffff" stroke-width="1"></path>
  <path d="m48.511 66.647 -4.987 0.61a1.674 1.674 0 0 0 -1.459 1.865h0a1.674 1.674 0 0 0 1.866 1.459l4.987 -0.609Z" fill="none" stroke="#45413c" stroke-linecap="round" stroke-linejoin="round" stroke-width="1"></path>
  <path d="M54.639 58.812a8.7 8.7 0 0 0 -7.587 9.7 8.626 8.626 0 0 0 0.363 1.642 8.709 8.709 0 1 0 7.224 -11.343Z" fill="#ffffff" stroke="#45413c" stroke-linecap="round" stroke-linejoin="round" stroke-width="1"></path>
  <path d="M49.469 67.455a6.227 6.227 0 1 0 12.454 0 6.227 6.227 0 1 0 -12.454 0Z" fill="#bf8256" stroke-width="1"></path>
  <path d="M49.551 68.462a6.227 6.227 0 0 1 12.289 0.009 6.161 6.161 0 0 0 0.036 -1.771 6.227 6.227 0 1 0 -12.361 1.511c0.01 0.089 0.022 0.168 0.036 0.251Z" fill="#915e3a" stroke-width="1"></path>
  <path d="M49.469 67.455a6.227 6.227 0 1 0 12.454 0 6.227 6.227 0 1 0 -12.454 0Z" fill="none" stroke="#45413c" stroke-linecap="round" stroke-linejoin="round" stroke-width="1"></path>
  <path d="M31.765 69.193a0.41 0.41 0 0 0 0.31 0.678h0l0.191 0a10.5 10.5 0 0 0 3.8 -0.739l5.66 -2.277a1.641 1.641 0 0 1 2.244 1.525 1.889 1.889 0 0 1 -1.029 1.52c-5.37 3.445 -6.974 4.436 -10.976 6.814" fill="#ffcebf" stroke="#45413c" stroke-linecap="round" stroke-linejoin="round" stroke-width="1"></path>
  <path d="M32.033 69.879a13.66 13.66 0 0 0 4.04 -0.749l5.66 -2.277a1.632 1.632 0 0 1 1.926 0.563c-3.828 2.611 -9.959 5.7 -11.626 2.463Z" fill="#ffdcd1" stroke-width="1"></path>
  <path d="M31.765 69.193a0.41 0.41 0 0 0 0.31 0.678h0l0.191 0a10.5 10.5 0 0 0 3.8 -0.739l5.66 -2.277a1.641 1.641 0 0 1 2.244 1.525 1.889 1.889 0 0 1 -1.029 1.52c-5.37 3.445 -6.974 4.436 -10.976 6.814" fill="none" stroke="#45413c" stroke-linecap="round" stroke-linejoin="round" stroke-width="1"></path>
  <path d="M31.765 69.193a0.41 0.41 0 0 0 0.31 0.678h0l0.191 0a10.5 10.5 0 0 0 3.8 -0.739l5.66 -2.277a1.641 1.641 0 0 1 2.244 1.525 1.889 1.889 0 0 1 -1.029 1.52c-5.37 3.445 -6.974 4.436 -10.976 6.814" fill="#ffdb94" stroke="#45413c" stroke-linecap="round" stroke-linejoin="round" stroke-width="1"></path>
  <path d="M32.033 69.879a13.66 13.66 0 0 0 4.04 -0.749l5.66 -2.277a1.632 1.632 0 0 1 1.926 0.563c-3.828 2.611 -9.959 5.7 -11.626 2.463Z" fill="#ffe9bd" stroke-width="1"></path>
  <path d="M31.765 69.193a0.41 0.41 0 0 0 0.31 0.678h0l0.191 0a10.5 10.5 0 0 0 3.8 -0.739l5.66 -2.277a1.641 1.641 0 0 1 2.244 1.525 1.889 1.889 0 0 1 -1.029 1.52c-5.37 3.445 -6.974 4.436 -10.976 6.814" fill="none" stroke="#45413c" stroke-linecap="round" stroke-linejoin="round" stroke-width="1"></path>
</svg>